<svg xmlns="http://www.w3.org/2000/svg" width="150" height="32" fill="#000" xmlns:v="https://vecta.io/nano"><path d="M11.272 6.529c-.403 0-.456.297-.456.54v17.21c0 .243.054.541.456.541l1.666.027v.189c-1.075 0-2.876-.027-3.951-.027l-3.816.027v-.189l1.613-.027c.403 0 .457-.298.457-.541V7.07c0-.243-.054-.54-.457-.54H5.09c-.725 0-1.666 1.135-2.499 2.486-.484.81-1.048 1.999-1.236 2.512h-.161l.323-5.214H16.54l.323 5.214h-.161c-.215-.621-.672-1.54-1.236-2.512-.86-1.459-1.774-2.486-2.499-2.486h-1.694zM21.78 24.28c0 .243.054.541.456.541l.806.027v.189c-1.075 0-1.8-.027-2.876-.027l-3.037.027v-.189l.86-.027c.404 0 .457-.298.457-.541V13.744c0-.244-.053-.541-.457-.541l-.914-.027v-.189h2.311a15.61 15.61 0 0 0 2.392-.217v11.51zm-1.72-14.076c-1.075 0-1.908-.838-1.908-1.918s.833-1.918 1.908-1.918 1.908.838 1.908 1.918-.833 1.918-1.908 1.918zm4.865 3.539c0-.244-.054-.541-.456-.541l-.887-.027v-.189h2.15c.833 0 1.854-.108 2.526-.217v2.162c1.263-1.54 2.607-2.296 4.138-2.296 1.639 0 2.983 1 3.279 2.323 1.102-1.432 2.553-2.323 4.192-2.323 1.693 0 3.333 1.189 3.333 2.837v8.808c0 .243.054.541.457.541l.753.027v.189c-1.075 0-1.882-.027-2.956-.027l-2.876.027v-.189l.834-.027c.403 0 .456-.298.456-.541v-8.51c0-1.567-.86-1.892-1.558-1.892-.968 0-2.096.622-2.58 1.378v9.024c0 .243.054.541.456.541l.86.027v.189c-1.075 0-1.988-.027-3.063-.027l-2.876.027v-.189l.833-.027c.403 0 .456-.298.456-.541v-8.51c0-1.567-.859-1.892-1.558-1.892-.995 0-2.15.703-2.58 1.378v9.024c0 .243.054.541.456.541l.86.027v.189c-1.075 0-1.989-.027-3.063-.027l-2.876.027v-.189l.833-.027c.403 0 .456-.298.456-.541V13.743h.001zm26.393 11.644c-3.279 0-6.236-2.08-6.236-6.457 0-3.998 2.957-6.295 5.912-6.295 2.983 0 5.375 1.918 5.375 5.403v.351h-7.767v.568c0 1.459.08 2.567.188 3.404.215 1.458 1.29 2.566 2.876 2.566 2.203 0 3.762-1.458 4.622-3.431l.189.054c-.915 2.297-2.689 3.836-5.16 3.836zm1.397-10.374c-.134-1.378-.752-2.216-1.962-2.216-1.182 0-1.908 1.053-2.043 2.242-.107.891-.107 2.296-.107 3.134h4.165l-.053-3.161zm9.513 10.347c-2.096 0-3.843-.946-4.139-.946-.188 0-.429.486-.538.703h-.134v-4.566h.188c.403 2.026 2.043 4.647 4.542 4.647 1.773 0 2.822-1.188 2.822-2.513 0-1.567-1.424-1.892-3.521-2.324-2.069-.405-3.817-1.134-3.817-3.944 0-2.297 2.097-3.783 4.193-3.783 2.069 0 3.601.783 3.87.783.134 0 .269-.27.35-.514h.107v3.782h-.16c-.377-1.432-1.909-3.89-4.14-3.89-1.505 0-2.284 1.053-2.284 2.134 0 1.269.833 1.864 2.822 2.215 2.876.513 4.622 1.27 4.622 4.053 0 2.135-1.801 4.162-4.784 4.162zm11.907-6.348c-.941 0-1.64-.27-2.203-.54-.645-.298-1.398-.432-2.097-.432-.859 0-1.558.486-1.72.972h-.242c.43-1.512 1.075-3.242 3.01-3.242.887 0 1.72.324 2.15.513.699.297 1.37.486 2.15.486.914 0 1.559-.54 1.72-1h.241c-.456 1.648-1.101 3.242-3.009 3.242zm8.359-3.621v8.888c0 .243.054.541.456.541l1.451.027v.189c-1.074 0-2.526-.027-3.602-.027l-3.869.027v-.189l1.531-.027c.403 0 .457-.298.457-.541V7.07c0-.243-.055-.54-.457-.54l-1.531-.027v-.189l3.869.027 3.655-.027v.189l-1.505.027c-.403 0-.456.297-.456.54v8.105h7.337V7.07c0-.243-.054-.54-.456-.54l-1.505-.027v-.189l3.897.027 3.627-.027v.189l-1.531.027c-.403 0-.457.297-.457.54v17.21c0 .243.054.541.457.541l1.531.027v.189c-1.128 0-2.499-.027-3.627-.027l-3.843.027v-.189l1.451-.027c.403 0 .456-.298.456-.541v-8.888h-7.337zm18.651 9.996c-3.278 0-6.234-2.08-6.234-6.457 0-3.998 2.956-6.295 5.912-6.295 2.983 0 5.375 1.918 5.375 5.403v.351h-7.767v.568c0 1.459.08 2.567.187 3.404.216 1.458 1.29 2.566 2.876 2.566 2.204 0 3.763-1.458 4.622-3.431l.189.054c-.914 2.297-2.687 3.836-5.161 3.836zm1.398-10.374c-.134-1.378-.753-2.216-1.961-2.216-1.182 0-1.908 1.053-2.043 2.242-.107.891-.107 2.296-.107 3.134h4.165l-.053-3.161zm8.762-.162c.538-.81 2.069-2.162 3.547-2.162 1.29 0 2.124.864 2.124 2.243 0 1.054-.754 1.918-1.774 1.918-.833 0-1.747-.54-1.747-1.783 0-.918.456-1.459 1.155-1.729l-.054-.135c-1.102-.054-2.742 1.188-3.252 1.918v9.159c0 .243.054.541.457.541l1.236.027v.189c-1.074 0-2.231-.027-3.305-.027l-3.011.027v-.189l.834-.027c.403 0 .456-.298.456-.541V13.743c0-.244-.053-.541-.456-.541l-.886-.027v-.189h2.283a15.61 15.61 0 0 0 2.392-.217v2.081h.001zm18.463 8.861c-.726 1.027-1.935 1.648-2.957 1.648-1.477 0-2.283-.892-2.364-1.702-1.076 1.27-2.527 1.702-3.898 1.702-1.343 0-3.117-.648-3.117-3.161 0-3.458 4.354-4.107 6.96-4.107v-3.161c0-1.162-.644-1.999-2.042-1.999-1.29 0-2.714.648-3.144 1.108v.135c1.423-.216 2.23.567 2.23 1.675 0 .864-.778 1.594-1.693 1.594-.94 0-1.773-.648-1.773-1.756 0-1.756 2.311-3.053 4.891-3.053 3.44 0 4.81 1.135 4.81 2.81v7.619c0 .486.189 1.135.914 1.135.43 0 .887-.378 1.048-.621l.135.135zm-5.375-5.403c-1.478 0-2.983.351-3.494 1.81-.134.406-.214.784-.214 1.648 0 .918.08 1.243.188 1.594.161.568.672 1 1.504 1 .807 0 1.721-.513 2.016-.973v-5.079zm9.649 5.971c0 .243.054.541.456.541l.78.027v.189c-1.075 0-1.774-.027-2.849-.027l-3.037.027v-.189l.861-.027c.402 0 .457-.298.457-.541V7.07c0-.243-.055-.54-.457-.54l-1.049-.027v-.189h2.445c.834 0 1.721-.108 2.392-.216l.001 18.183zm13.732 0c0 .243.056.541.457.541l.834.027v.189c-1.129 0-1.666-.027-2.338-.027l-2.285.027V23.74c-.806 1.027-1.962 1.621-3.385 1.621-3.172 0-4.999-2.512-4.999-6.349 0-3.701 1.988-6.376 5.186-6.376 1.425 0 2.526.648 3.198 1.567V7.07c0-.243-.053-.54-.456-.54l-1.317-.027v-.189h2.713l2.392-.216V24.28zm-7.846-1.783c.349 1.486 1.236 2.08 2.284 2.08s1.774-.567 2.23-1.189v-8.889c-.563-.675-1.263-1.054-2.204-1.054-1.074 0-2.042.702-2.364 2.188-.134.649-.296 1.918-.296 3.377 0 1.567.162 2.729.35 3.485z" fill-opacity=".471"/></svg>